<?xml version="1.0" encoding="UTF-8"?>
<svg id="Layer_2" data-name="Layer 2" xmlns="http://www.w3.org/2000/svg" viewBox="0 0 708.66 708.66">
  <defs>
    <style>
      .cls-1 {
        fill: #979b8a;
      }

      .cls-2 {
        fill: #f7f3f0;
      }
    </style>
  </defs>
  <g id="BACKGROUND">
    <rect class="cls-1" width="708.66" height="708.66" rx="69.36" ry="69.36"/>
  </g>
  <g id="DIEGO_GONZALEZ" data-name="DIEGO GONZALEZ">
    <path class="cls-2" d="M328.5,291.05c7.55-9,22.86-10.11,24.02-11.45,3.34-3.86-1.89-31.27-4.87-37.53-6.05-12.72-20.06-24.34-22.36-38.08,12.35,8.93,20.15,21.93,26.59,35.46.55-7.02-2.05-13.9-3.15-20.7-3.44-21.33-5.87-17.12-12.98-34.11-1.42-3.4-2.47-13.86-4.87-14.5-5.76-1.56-13.65,18.19-23.33,13.7,3-2.97,7.07-2.9,10.52-5.6,3.91-3.06,6.15-9.48,9.31-12.44,2.48-2.33,6.76-2.75,10.15-6.95,3.02-3.73,9.19-18.06.62-7.27-3.35,4.22-3.37,9.34-10.62,10.49-3.64.58-7.28-5.55-11.93-4.85l8.06-9.64c-16.06,1.21-17.04,14.32-19.36,27.38-4.46-1.89.21-9.65,0-12.89-6.47,3.95-5.67,12.82-4.84,19.34-3.38-.68-3.48-7.74-3.17-10.31.51-4.31,6.95-11.8,6.41-12.24-3.78-3-16.02,16.16-17.73,19.32l4.82-1.6-3.2,4.82c5.17-2.3,9.1,4.51,10.49,4.85,3.79.91,2.58-4.83,5.61-4.82-2.44,14.55-6.52,4.79-10.79,3.52-5.01-1.48-10.91,2.39-10.11-7.46.24-2.99,11.98-17.68,14.48-19.43,4.58-3.2,12.06-1.91,14.5-8.86l-22.51-6.53c.88-9.79-1.52-3.71-4.96-6.96-2.05-1.94-6.9-10.12-5.59-12.31l8.05,4.85c3.25-5.25-10.8-6.94-13.88-10.43-.92-1.05-1.65-10.08-1.4-10.55,1.05-1.96,9.82,4.08,10.39,4.18,5.13.96,11.11-7.55,18.6-4.2-.34-3.49-6.09-3.4-7.91-4.06-8.93-3.23.63-6.39,5.53-.75,1.61-8.55,16.62,2.69,19.23,6.52,1.88,2.75,5.83,10.92.9,10.39l4.83,5.64-6.44-.8c1.5,2.48,4.83,1.54,6.55,3.53,2.74,3.16,2.26,12.01,5.72,13.23,7.28,2.57,6.35-2.55,2.78-7.36l1.05-15.02c3.2,10.81-1.12,23.34,14.52,21.74-8.28,3.54-15.58,9.94-19.33,18.55,7.72-5.11,17.64-19.3,28.63-16.7,11.83,2.8,13.97,17.57,2.06,15.13,1.13,4.33-8.73,12.54-2.48,12.87,7.65.4,2.52-5.01,7.23-8.06.12,6.87-4.45,14.37-8.18,20.03l4.99,34.77,9.28-33.45c1.83-11.77,8.8-23.82,14.97-33.77,11.64-18.78,13.22-38.39,38.97-44.45,2.37-.56,8.04-1.54,10.08-1.25,5.23.76,2.36,4.22,2.8,4.63.96.86,6.78,1.85,8.52,3.52l.81-3.24,11.29,1.62-6.43,3.19c3.54-.03,12.06,2.02,14.45,4.1,2.26,1.95,2.04,6,4.16,8.74,2.19,2.84,9.56,5.67,11.21,8.22.35.55,2.79,12.29,2.4,12.82-.54.74-13.59-5.78-17.28-6.1-5.5-.48-16.69,3.14-25.5,2.94-7.44-.18-22.43-4.41-27.35-4.35-2.29.03-4.37,3.21-6.87,3.89-1.88.52-4.16-.87-6.36,0-2.25.88-12.15,6.34-13.09,7.92-3.49,5.85-9.84,27.17-11.97,34.79-5.16,18.43-5.74,27.02-5.95,45.5-.07,5.94-1.65,42.83-.08,44.41.62.62,12.8-.05,17.44,1.1,19.21,4.76,26.76,21.45,24.52,40.04-.86,7.14-12.72,17.59-18.83,21.46-11.77,7.45-19.43,3.04-21.51,22.83,30.72,6.29,41.12-38.14,54.15-59.5,13.82-22.64,32.33-42.26,46.83-64.41,21.4-32.69,31.73-65.62,62.71-92.06,14.79-12.62,58.24-41.91,76.49-44.52,16.12-2.31,10.8,38.52,9.27,48.06-8.1,50.39-45.15,82.49-76.16,118.93-12.86,15.12-24.3,31.45-37.86,45.98,10.25-.7,43.07-10.65,50.13-1.79,6.01,7.54-10.6,32.38-16.31,38.83-14.63,16.54-61.03,36.49-82.93,37.99-24.19,1.65-42.41-6.61-65.35-11.33l17.2,12.6c24.97,14.88,52.89,26.95,75.45,45.47,43.15,35.43,84.67,123.92,79.91,179.78-2.47,28.94-24.2,18.12-41.85,7.88-41.43-24.04-67.18-66.19-86.39-108.69-6.39,31.69-22.79,59.64-58.06,62.84-45.6,4.14-79.54-23.14-87.05-67.7l-16.08,33.9c-15.73,28.71-34.63,53.32-61.59,72.22-11.85,8.31-47.85,31.89-51.96,5.8-7.79-49.41,29.2-134.43,62.69-170.8,24.43-26.52,58.57-41.34,89.21-59.12l20.46-14.18c-16.75,2.01-32.25,9.94-49.19,11.24-39.08,3.01-102.83-24.74-116.01-64.52-8.76-26.43,34.14-12.82,46.8-9.69,2.44.6,2.69.02,2.31-2.32-14.34-15.86-27.24-32.94-41.08-49.22-28.44-33.46-63.29-65.15-71.33-110.85-1.75-9.93-5.92-46.69,4.47-51.21,4.95-2.15,27.38,8.75,33.26,11.87,18.73,9.94,48.58,31.32,62.62,47.01,20.44,22.82,32.6,55.12,49.74,80.85,14.67,22.02,33.33,41.54,46.84,64.41,9.21,15.59,22.86,56.82,43.77,57.79,5.88.27,14.02-1.77,16.08-7.87,3.72-11,.18-6.88-4.85-6.49-8.51.67-26.57-2.44-32.65-8.56-1.25-1.25-1.1-3.64-1.99-4.77-1.48-1.89-4.17-2.25-5.34-4.78-2.64-5.74-1.14-22.69,1.21-28.71,2.34-5.99,7.13-8.6,12.12-11.25-5.98,7.13-4.93,14.08-6.83,17.39-.38.67-2.93.79-4.1,3.06-1.28,2.51-1.49,7.23-1.95,10.18l3.19-3.21,1.61,6.43c-2.21-6.61,12.82-9.28,9.7-1.59l4.82-1.61-3.21,4.03c2.94,3.48,6.35-3.31,7.23-3.66,1.33-.53,9.91-1.1,12.1-.37v-8.06c-5.44-1.07-3.05,4.4-4.07,4.91-2.9,1.46-9.09,2.52-12.03.73,2.18-3.37,5.16-.14,8.07-1.58,5-2.47-1.75-1.61-1.62-4.06,5.36.68,5.3-5.26,11.27-3.26l-8.04-3.19,17.74-6.48c-6.87-9.53,14.71-.3,6.53-10.26-1.3-1.59-7.85-.49-4.9-4.22.26-.33,2.72.7,2.82-.84.04-.6-1.43-2.09-1.22-2.32.52-.54,6.18.26,6.43-3.29-12.41-3.24-32.19,5.23-43.53,11.27M444.89,133.55c-2.75-1.5-10.54-1.44-14.12-2.1l4.82,3.19c-4.97.15-9.96-.42-14.93.39-1.36.22-7.56,2.36-7.62,4.44,6.04,3.73,10.46-.61,15.26-.82,4.08-.18,8.9,2.5,12.97,2.47,5.26-.04,10.58-4.17,16.89-1.65.14-3-7.49-2.37-8.07-3.23-.15-.23,2.22-2.75,1.63-3.19-2.23-1.66-4.47,2.75-5.65,3.21-1.38.54-.31-2.25-1.18-2.72M108.32,142.74c-1.17-1.32-3.4-.77-3.23,2.38.16,3.05,5.46,27.22,6.47,28.26.17.17,2.49-1.51,4.78-.88,9.25,2.55,16.44,9.98,25.83,12.13l-30.62-20.15,9.66,1.63c-.29-2.59-14.7-5.54-11.26-8.88.82-.8,8.65,6.56,11.26,4.04-2.69-4.57-15.71-6.2-11.78-10.49.45-.49,1.99.89,2.13-.8.11-1.32-3.07-.95-4.22-2.38-1.34-1.66,1.51-4.26.98-4.86M122.83,149.15c.82-.64-3.15-4.51-4.84-3.19-.82.64,3.15,4.51,4.84,3.19M612.95,147.56c-10.71,3.71,1.85,1.44-4.02,6.44-3.85,3.28-10.08,4.88-13.7,8.88l12.89-4.02-4.82,3.23c-.19,3.14,5.94.11,1.64,4.05-7.43,6.81-20.57,10.51-27.45,18.49,10.54-3.33,19.02-12.21,30.35-13.16l5.11-23.9ZM604.89,174.97c-1.47-1.47-10.37,3.17-12.1,4.82-.9,4.34,8.39-2.11,8.87-1.6,1.85,1.98-4.09,4.18-3.13,7.18-9.32,2.01-12.65,13.06-19.09,18.51-10.91,9.23-26.79,15.3-35.8,27.51,5.99-.09,20.93-14.61,25.81-11.26-3.17,5.22-.44,1.94,2.69,3.73,1.01.58-.03,3.21,1.32,2.7,5.08-1.93,34.63-48.39,31.44-51.58M443.67,320.05c1.23.96,5.56-.28,6.22-2.63l98.56-132.78c-33,39.15-63.15,81.32-95.74,121.09-1.24,1.6-9.71,13.8-9.04,14.32M128.79,193.26c-2.25-1.33-4.73-2.12-6.78-3.78-1.22-.25-1.03,1.55-.77,2.38,1.13,3.64,18.89,29.82,21.69,31.65,3.48,2.27,9.76.07,5.7-5l11.28,3.2c-4.54-2.55-5.79-8-8.11-10.41-2.27-2.36-10.18-4.36-12.06-7.38-1.01-1.62.99-4.01-.67-5.59-2.93-2.79-6.75-.85-8.24-1.72-.99-.58-1.3-2.9-2.05-3.34M272.76,318.45c.99-1.11-1.09-6.54-2.49-7.97-30.99-37.6-59.33-77.78-90.99-114.56l57.39,78.83c11.19,11.95,19.99,28.17,30.93,40.01.8.86,3.28,5.79,5.17,3.68M162.37,235.56c-2.34-1.83-13.62-11.57-16.81-8.99-.56.45,7.8,10.1,8.84,11.29,7.26,8.3,14.96,19.78,26.62,19.31l-8.88-9.63v3.21c-2.77,1.43-4.36-6.21-4.01-6.45,1.37-.95,6.56,3.74,6.43,0-5.75-.8-8.13-5.57-12.2-8.75M556.53,239.46c-1.22-.06-2.33,1.25-3.23,1.61-1.3.53-1.93.42-3.22,1.61-.59.54-1.08.79-1.61,1.61-1.77.86-5.29.53-6.47,2.42l6.47-.81c-.22.4.21,1.15,0,1.61-.25.54-1.42,1.07-1.61,1.61-2.42,1.23-7.16.91-8.06,4.82,2.46-.38,5.8-2.04,8.06-3.21-.3.78-1.96,2.92-1.62,3.21.17.14,3.86,1.48,4.07,1.48,1.02-.02,12.22-13.32,13.66-15.18,8.15-10.52-1.38-3.66-6.43-.79M193.77,274.91c.94-.73-4.73-5.03-6.42-4.03,1.36,1.5,4.6,5.45,6.42,4.03M510.09,297.18v1.93c1.05-.54,1.05-1.08,0-1.61M215.22,300.74l-4.79-.84c1.43,1.74,2.44,2.95,4.79,2.42v-1.58ZM356.6,329.76c-3.2.35-7.2-.71-10.19,0-1.26.3-1.05,3.07-2.11,3.27-1.25.24-11.54-3.3-7.04,1.52,1.5,1.6,13.2,1.29,15.05,1.78.45.12,5.04,5.33,7.68,5.31l3.04,13.87,2.89-15.38c-.17-1.94-7.56-2.31-9.08-4.21-.58-.72,4.46-4.05-3.46-2.99l3.21-3.19ZM414.25,421.64c-4.91-24.5-31.09-33.63-49.95-45.14l-.03,17.74c20.79-.98,36.01,14.49,49.97,27.4M308.25,416.8c5.93-4.71,10.58-10.25,17.24-14.19,5.63-3.33,18.39-6.35,20.76-8.26,1.74-1.41,6.53-13.33,5.5-14.63-1.84-2.32-47.29,25.62-43.5,37.08M390.46,411.97c-7.07-2.93-6.3-1.99-12.41-6.47-1.52-1.12-5.07-1.38-5.3-1.66-.15-.18,1.81-3.01,1.61-3.14-1.02-.73-5.35,1.56-4.86-1.61l4.82-1.61c-6.58-2.18-13.47,2.87-18.65,3.11-5.42.26-13.66-3.19-20.03-1.5.41,4.2,11.02.6,11.23,4,.19,3.05-4.39,7.53-7.22,8.86,3.8-6.41,1.81-6.69-3.22-1.61-.4-1.98,5.21-6.65.04-4.78-1.94.7-13.34,10.7-15.34,12.88-.74-7.75-9.55,3.52-1.61,1.61-.58.7-4.58,5.78-4.77,6.14-2.87,5.25-3.17,7.8-1.68,13.21.32,1.17-.79,3.24.81,3.24s.41-2.15.81-3.24c.27-.75,1.11-2.07,1.61-3.22.68-.75,3.04-1.24,3.22-1.61-4.5,7.48-9.67,18.51-10.84,27.06-1.8,13.16-3.43,32.41-1.64,45.88.87,6.54,2.61,11.9,9.26,14.13.24,2,1.31,2.45,1.61,3.22,3.16,8.24,2.7,4.32,6.45,4.84.49.76.74,1.19,1.61,1.61.07,1.06-.13,2.18,0,3.22-.91-.27-1.78-.87-2.43-1.58-1.62.94.83,2.14.82,3.19,0,.47-2.47,1.21-.17,4.07,3.09,3.82,4.36.78,5,.77,1.11-.01,2.27,2.45,3.19.82-.66-1.39-2.37-1.72-3.19-2.43.17-.33-.07-1.03,0-1.61.16-1.26,1.75.46,0-1.61-.51-.61-.58-1.11-1.61-1.61-.09-1.06.08-2.16,0-3.22.48.09,1.11.02,1.61,0,.54.34,1.03,1.12,1.61,1.61.56.47,1.11,1.07,1.61,1.61.5.54,1.21,1.05,1.61,1.61-.15.33.03,1.04,0,1.61-.01.16-2.53,1.36,0,1.61l1.61,1.61c.08.51-.02,1.09,0,1.61-2.06.29-2.02,1.05,0,1.61l7.23,4.87c2.78.32-2.92-4.19-4-4.87.98.2,2.28-.22,3.23,0,1.13,1.55,2.27,1.12,3.22,1.61.31.16,1.28,3.23,3.22,1.61-1.14.58-3.61,1.64-3.22,3.21,3.32.29,14.93.59,14.47,5.67-.35,3.81-8.07-.03-9.63.82l8.04,3.23-6.42,3.22,4.82,3.19c-4.36-1.64-4.69,3.55-7.05,3.3-1.1-.12-12.32-2.54-13.42-2.94-3.44-1.25-7.69-5.54-10.06-6.14-2.2-.55-3.73,1.94-3.32,2.53.65.93,18,8.51,20.62,9.23,5.55,1.52,14.97,3.34,20.5,3.37,2.58.01,22.58-2.05,23.38-2.91.17-.18.15-4.57-.02-4.84-.25-.38-4.98,4.46-4.33-3.8.41-5.33,3.65-3.59,5.76-5.2,6.85-5.23-7.48-4.27-6.24-10.33l7.21,3.25-4-4.85c2.41-.4,4.22,1.21,6.45,1.6.27.05.72,1.61,1.61,0l3.24-.81-3.24-.81c-.12-.79-2.28-2.76-1.61-3.21,1.24-.83,10.19,4.6,12.89-.83-7.43-1.89,1.15-3.58,3.38-6.38,1.08-1.34.32-6.32,2.68-10.14,4.1-6.65,14.22-12.78,15.69-20.56.49-2.62-2.16-6.99.82-10.45-8.92,4-2.47-2.18-3.05-8.89-.43-4.98-5.08-16.51-6.24-22.96-1.84-10.26,1.66-12.21-5.21-22.98-.16-1.02.17-2.21,0-3.23,3.04-1.37.28-2.7,0-3.22-.36-.67-1-1.18-1.61-1.61-.33-.24-1.02-2.59-1.61,0-.36-.26-1.25.25-1.61,0-.24-.37.31-1.77-1.61-1.61-1.04-1.61-1-3.77-1.61-4.84,1.12.83,3.62,3.4,4.8,2.44l-4.8-4.05-1.61-1.61c-.53-.55-1.07-1.08-1.61-1.61-.54-.53-1.07-1.08-1.61-1.61-.54-.54-1.07-1.08-1.61-1.61-.54-.53-1.08-1.07-1.61-1.61-.54-.54-1.08-1.07-1.61-1.61-.53-.54-1.06-1.09-1.61-1.61l-1.61-1.61-2.44-3.19c-1.22.67.22,2.11.82,3.19M387.5,406.51v2.23c1.05-.54,1.05-1.07,0-1.61M530.71,598.99l-35.73-60.18c-13.73-26.58-26.26-53.97-40.8-80.12-2.33-4.18-5.17-9.92-8.89-12.86,12.82,28.24,26.66,56.14,41.63,83.31,13.04,23.68,26.87,48.89,43.79,69.85M184.11,605.44c6.42-5.64,11.43-14.42,16.14-21.73,27.82-43.19,50.83-89.75,72.5-136.27-4.76,5.16-8.75,13.05-12.11,19.31-13.59,25.33-24.79,51.97-39.19,76.9l-37.35,61.79ZM198.65,495.97v1.45c1.05-.54,1.05-1.08,0-1.61M195.34,512.53v1.01c1.05-.54,1.05-1.08,0-1.61M176.19,545.65c-.59-.63,4.26-14.11,5.03-16.43,1.17-3.54,7.09-8.35,1.29-10.83-7.16,21.63-17.88,44.32-20.79,67.09-1.07,8.37-2.28,38.33,3.45,43.72,1.94,1.83,13.23,3.44,7.22.07-3.61-2.03-6.21-2.17-7.38-7.24-1.27-5.48,1.85-2.95,2.95-3.71,1.73-1.18-2.25-1.46-2.81-2.39-3.3-5.47-.62-21.83,2.81-27.5l-3.21-1.52,6.43-4.06c.64-3.26-5.27-.39-4.82-2.39.36-1.55,2.81-4.62,4.82-4.06.66-2.77-2.35-1.01-2.94-1.75-.41-.53,1.23-11.99,1.57-13.29.33-1.3,2.18-1.04,2.5-1.94.77-2.15,1-7.85,2.18-9.41,1.77-2.35,4.3-2.24,4.75-2.64,1.78-1.58-2.9-1.56-3.06-1.73M545.24,631.22c5.88.19,10.1-2.73,11.83-8.31,4.72-15.24-.76-44.99-4.95-60.62l-16.53-43.9c-1.11,2.7-.69,3.29-.15,5.68,1.35,5.93,4.99,15.99,8.19,20.92-7.04,2.06-.26,2.28,1.76,5.2.95,1.37.63,5.42,1.32,7.69.71,2.34,2.91,3.73,3.36,4.84.67,1.62-4.03-.42-3.21,2.39,4.92-2.43,5.12,13.95,4.79,15.15-.45,1.62-3.78.42-3.18,1.8l6.44,4.85c-6.24,1.68-1.27,1.74-.69,4.83,1.01,5.4-.28,9.14-.28,12.85,0,2.59,2.51,5.62,2.42,6.57-.2,1.82-6.28,1.21-4.7,6.39.16.53,6.22,1.14.83,8.85-1.61,2.3-6.55,1.22-7.24,4.83M461.39,550.62c-.68.57-2.76-1.64-2.89-2.75l-3.54-26.27,1.58,24.17c-2.51-.54-3.21-10.31-8.03-7.26l21.76,34.67c3.63-9.59-10.48-15.16-7.28-25.78-2.93-.64-1.02,2.72-1.61,3.22M271.16,537.74c-3.48-3.47-6.11,9.81-10.03,8.05l-1.28,4.82-3.19-9.66c1.13,8.11-1.67,15.64-5.05,22.84-2.55,5.43-5.58,6.43-7.58,8.15-.72.62-5.72,11.84-6.71,14.14,5.25-2.75,35.93-46.26,33.84-48.35"/>
  </g>
</svg>