<svg xmlns="http://www.w3.org/2000/svg" version="1.1" xmlns:xlink="http://www.w3.org/1999/xlink" width="1000" height="1000"><g clip-path="url(#SvgjsClipPath1048)"><rect width="1000" height="1000" fill="#e7eae1"></rect><g transform="matrix(1.27000254000508,0,0,1.27000254000508,50,50)"><svg xmlns="http://www.w3.org/2000/svg" version="1.1" xmlns:xlink="http://www.w3.org/1999/xlink" width="708.66" height="708.66"><svg id="Layer_2" data-name="Layer 2" xmlns="http://www.w3.org/2000/svg" viewBox="0 0 708.66 708.66">
  <defs>
    <style>
      .cls-1 {
        fill: #5e7658;
      }

      .cls-2 {
        fill: #e7eae1;
      }
    </style>
  <clipPath id="SvgjsClipPath1048"><rect width="1000" height="1000" x="0" y="0" rx="350" ry="350"></rect></clipPath></defs>
  <g id="DIEGO_GONZALEZ" data-name="DIEGO GONZALEZ">
    <g>
      <rect class="cls-2" width="708.66" height="708.66" rx="69.36" ry="69.36"></rect>
      <path class="cls-1" d="M318.22,269.98c8.49-10.12,25.7-11.37,27.01-12.87,3.75-4.34-2.12-35.16-5.47-42.2-6.81-14.3-22.56-27.36-25.14-42.82,13.88,10.04,22.65,24.66,29.9,39.87.61-7.89-2.31-15.62-3.54-23.27-3.87-23.98-6.6-19.25-14.6-38.35-1.6-3.82-2.78-15.58-5.48-16.31-6.48-1.75-15.35,20.45-26.24,15.41,3.37-3.34,7.95-3.26,11.83-6.3,4.4-3.44,6.92-10.66,10.47-13.99,2.79-2.62,7.6-3.09,11.41-7.81,3.4-4.19,10.33-20.31.7-8.18-3.77,4.75-3.78,10.5-11.94,11.8-4.1.65-8.18-6.24-13.41-5.46l9.07-10.84c-18.06,1.36-19.16,16.1-21.77,30.79-5.01-2.13.23-10.86,0-14.49-7.28,4.44-6.37,14.41-5.44,21.74-3.8-.76-3.91-8.71-3.57-11.6.57-4.85,7.82-13.27,7.21-13.76-4.25-3.37-18.02,18.17-19.94,21.72l5.42-1.8-3.6,5.42c5.81-2.59,10.23,5.07,11.8,5.45,4.26,1.03,2.9-5.43,6.3-5.42-2.74,16.36-7.34,5.38-12.13,3.96-5.64-1.67-12.27,2.69-11.37-8.39.27-3.36,13.47-19.88,16.28-21.85,5.14-3.6,13.56-2.15,16.3-9.96l-25.31-7.34c.99-11-1.71-4.17-5.58-7.83-2.31-2.19-7.76-11.38-6.28-13.85l9.05,5.45c3.66-5.9-12.14-7.81-15.6-11.73-1.04-1.18-1.86-11.33-1.58-11.86,1.18-2.21,11.04,4.58,11.69,4.7,5.77,1.08,12.49-8.49,20.92-4.72-.38-3.93-6.84-3.83-8.89-4.57-10.04-3.63.71-7.18,6.22-.84,1.81-9.61,18.68,3.03,21.62,7.33,2.11,3.09,6.55,12.28,1.01,11.68l5.43,6.34-7.24-.9c1.69,2.79,5.43,1.73,7.36,3.97,3.08,3.55,2.54,13.5,6.43,14.87,8.19,2.89,7.14-2.86,3.13-8.28l1.18-16.88c3.6,12.16-1.26,26.24,16.33,24.45-9.31,3.97-17.52,11.17-21.73,20.85,8.68-5.74,19.83-21.7,32.19-18.78,13.3,3.15,15.71,19.75,2.32,17.01,1.27,4.87-9.81,14.1-2.79,14.47,8.6.45,2.83-5.64,8.12-9.06.13,7.72-5.01,16.16-9.19,22.53l5.61,39.09,10.43-37.61c2.06-13.23,9.9-26.78,16.83-37.97,13.08-21.12,14.86-43.16,43.81-49.97,2.66-.63,9.04-1.73,11.33-1.4,5.88.85,2.65,4.75,3.15,5.2,1.08.97,7.62,2.07,9.58,3.96l.91-3.64,12.7,1.82-7.23,3.59c3.97-.03,13.56,2.27,16.25,4.61,2.54,2.19,2.3,6.75,4.68,9.83,2.46,3.19,10.74,6.37,12.61,9.24.4.61,3.13,13.82,2.7,14.41-.61.83-15.28-6.5-19.43-6.86-6.19-.54-18.77,3.53-28.67,3.3-8.36-.2-25.22-4.96-30.75-4.89-2.57.03-4.91,3.61-7.73,4.38-2.12.58-4.68-.98-7.16,0-2.53.99-13.66,7.13-14.72,8.9-3.92,6.58-11.06,30.55-13.46,39.11-5.8,20.72-6.45,30.38-6.69,51.16-.07,6.68-1.86,48.16-.09,49.93.69.7,14.39-.06,19.61,1.24,21.6,5.35,30.09,24.11,27.57,45.02-.97,8.02-14.3,19.78-21.17,24.12-13.24,8.38-21.85,3.42-24.19,25.67,34.54,7.07,46.23-42.88,60.89-66.9,15.53-25.45,36.35-47.52,52.66-72.43,24.06-36.76,35.67-73.78,70.51-103.51,16.63-14.19,65.48-47.12,86-50.06,18.12-2.59,12.15,43.31,10.42,54.03-9.11,56.66-50.77,92.75-85.63,133.72-14.46,17-27.32,35.36-42.57,51.7,11.53-.79,48.43-11.97,56.37-2.01,6.75,8.48-11.92,36.4-18.34,43.66-16.45,18.59-68.62,41.03-93.25,42.71-27.2,1.86-47.69-7.43-73.48-12.74l19.34,14.17c28.08,16.73,59.47,30.3,84.83,51.12,48.52,39.84,95.2,139.33,89.85,202.14-2.78,32.54-27.21,20.37-47.05,8.85-46.58-27.03-75.54-74.43-97.13-122.21-7.19,35.63-25.63,67.06-65.28,70.66-51.27,4.65-89.43-26.02-97.88-76.12l-18.07,38.12c-17.69,32.28-38.94,59.95-69.26,81.2-13.33,9.34-53.8,35.86-58.42,6.52-8.76-55.56,32.83-151.15,70.49-192.05,27.47-29.82,65.86-46.49,100.3-66.47l23-15.94c-18.83,2.26-36.26,11.18-55.31,12.64-43.94,3.38-115.62-27.82-130.44-72.54-9.85-29.72,38.38-14.41,52.63-10.9,2.74.67,3.02.02,2.6-2.61-16.12-17.83-30.62-37.04-46.19-55.34-31.98-37.62-71.16-73.26-80.2-124.64-1.96-11.16-6.65-52.5,5.03-57.58,5.56-2.42,30.79,9.84,37.4,13.35,21.06,11.18,54.62,35.22,70.41,52.85,22.98,25.66,36.66,61.98,55.93,90.9,16.5,24.76,37.48,46.7,52.66,72.42,10.36,17.53,25.7,63.89,49.22,64.98,6.61.31,15.76-1.99,18.08-8.84,4.19-12.36.2-7.74-5.46-7.29-9.57.75-29.88-2.74-36.72-9.63-1.4-1.41-1.24-4.09-2.24-5.36-1.67-2.12-4.69-2.53-6.01-5.38-2.97-6.45-1.28-25.51,1.36-32.28,2.63-6.74,8.02-9.67,13.63-12.65-6.73,8.02-5.55,15.84-7.69,19.55-.43.75-3.3.89-4.6,3.44-1.44,2.82-1.68,8.13-2.19,11.44l3.59-3.61,1.81,7.23c-2.48-7.43,14.41-10.44,10.91-1.79l5.42-1.81-3.61,4.53c3.3,3.92,7.14-3.72,8.12-4.11,1.49-.59,11.14-1.24,13.6-.42v-9.06c-6.11-1.2-3.43,4.95-4.57,5.52-3.26,1.64-10.22,2.83-13.53.82,2.45-3.79,5.8-.16,9.07-1.78,5.62-2.78-1.97-1.81-1.82-4.56,6.03.76,5.96-5.91,12.67-3.66l-9.04-3.58,19.94-7.29c-7.72-10.72,16.54-.34,7.35-11.53-1.46-1.78-8.83-.55-5.51-4.75.29-.37,3.05.79,3.17-.95.05-.67-1.61-2.35-1.37-2.6.58-.6,6.95.29,7.23-3.7-13.95-3.65-36.19,5.88-48.94,12.67M449.09,92.89c-3.1-1.68-11.85-1.62-15.87-2.36l5.42,3.59c-5.59.17-11.2-.47-16.79.44-1.53.25-8.5,2.65-8.56,5,6.79,4.19,11.76-.68,17.16-.92,4.58-.2,10.01,2.81,14.58,2.78,5.91-.04,11.89-4.69,18.99-1.85.15-3.37-8.42-2.66-9.07-3.63-.17-.26,2.5-3.09,1.83-3.58-2.51-1.87-5.03,3.09-6.36,3.61-1.55.6-.35-2.53-1.33-3.06M70.65,103.22c-1.32-1.48-3.82-.86-3.63,2.67.18,3.43,6.14,30.61,7.28,31.78.19.19,2.8-1.7,5.38-.99,10.4,2.87,18.48,11.22,29.04,13.64l-34.43-22.65,10.86,1.83c-.33-2.92-16.53-6.23-12.66-9.98.92-.9,9.73,7.38,12.66,4.54-3.02-5.14-17.67-6.97-13.25-11.8.5-.55,2.24,1.01,2.4-.9.13-1.49-3.45-1.07-4.75-2.68-1.51-1.87,1.7-4.79,1.1-5.46M86.97,110.44c.92-.72-3.55-5.07-5.44-3.59-.92.72,3.55,5.07,5.44,3.59M638.04,108.65c-12.04,4.17,2.08,1.62-4.52,7.24-4.33,3.68-11.33,5.49-15.4,9.98l14.49-4.52-5.42,3.63c-.21,3.53,6.68.12,1.84,4.55-8.35,7.66-23.13,11.82-30.86,20.79,11.85-3.74,21.38-13.73,34.12-14.8l5.75-26.87ZM628.98,139.47c-1.65-1.65-11.66,3.57-13.6,5.42-1.01,4.88,9.44-2.38,9.97-1.8,2.07,2.23-4.6,4.7-3.52,8.07-10.48,2.26-14.22,14.68-21.47,20.81-12.27,10.37-30.12,17.21-40.25,30.93,6.73-.1,23.53-16.43,29.02-12.66-3.57,5.87-.5,2.19,3.02,4.19,1.14.65-.03,3.61,1.49,3.04,5.71-2.17,38.93-54.41,35.35-57.99M447.71,302.59c1.38,1.08,6.25-.31,6.99-2.96l110.82-149.29c-37.1,44.02-71.01,91.43-107.65,136.15-1.39,1.8-10.91,15.52-10.17,16.1M93.67,160.03c-2.53-1.49-5.32-2.38-7.62-4.25-1.37-.28-1.15,1.74-.87,2.67,1.27,4.1,21.24,33.53,24.39,35.58,3.91,2.55,10.97.08,6.41-5.62l12.68,3.59c-5.1-2.87-6.51-8.99-9.12-11.71-2.56-2.65-11.45-4.91-13.56-8.3-1.14-1.83,1.12-4.5-.75-6.28-3.3-3.14-7.59-.95-9.26-1.94-1.11-.66-1.46-3.26-2.3-3.75M255.55,300.79c1.12-1.25-1.23-7.35-2.81-8.96-34.84-42.27-66.7-87.45-102.31-128.8l64.52,88.64c12.58,13.43,22.47,31.67,34.77,44.99.9.97,3.69,6.52,5.82,4.13M131.43,207.59c-2.63-2.06-15.31-13.01-18.9-10.11-.63.51,8.77,11.35,9.94,12.7,8.16,9.33,16.82,22.24,29.94,21.71l-9.99-10.83v3.61c-3.11,1.61-4.9-6.98-4.51-7.25,1.54-1.07,7.37,4.21,7.23,0-6.46-.9-9.14-6.26-13.71-9.84M574.61,211.97c-1.37-.06-2.62,1.4-3.63,1.81-1.46.6-2.17.47-3.62,1.81-.66.61-1.21.88-1.81,1.81-1.99.96-5.95.6-7.27,2.72l7.27-.91c-.25.45.23,1.29,0,1.81-.28.61-1.6,1.2-1.81,1.81-2.72,1.38-8.05,1.02-9.06,5.42,2.76-.43,6.52-2.29,9.06-3.61-.34.88-2.2,3.29-1.83,3.61.19.16,4.34,1.67,4.58,1.67,1.15-.02,13.73-14.98,15.36-17.07,9.16-11.83-1.55-4.12-7.23-.89M166.73,251.84c1.05-.82-5.32-5.66-7.22-4.53,1.53,1.69,5.17,6.12,7.22,4.53M522.39,276.87v2.17c1.18-.6,1.18-1.21,0-1.81M190.85,280.87l-5.39-.94c1.61,1.96,2.74,3.32,5.39,2.72v-1.78ZM349.81,313.51c-3.6.39-8.1-.8-11.45.01-1.42.34-1.18,3.45-2.38,3.68-1.41.27-12.98-3.71-7.92,1.71,1.68,1.8,14.84,1.45,16.92,2,.51.13,5.67,6,8.64,5.97l3.42,15.6,3.25-17.3c-.19-2.19-8.5-2.6-10.21-4.73-.65-.81,5.02-4.56-3.89-3.36l3.61-3.59ZM414.64,416.81c-5.52-27.55-34.96-37.81-56.16-50.76l-.03,19.94c23.37-1.1,40.49,16.29,56.19,30.81M295.45,411.37c6.66-5.3,11.9-11.53,19.38-15.95,6.33-3.74,20.68-7.14,23.34-9.29,1.96-1.58,7.35-14.99,6.19-16.45-2.07-2.6-53.17,28.81-48.91,41.69M387.89,405.94c-7.95-3.29-7.09-2.24-13.95-7.28-1.71-1.26-5.7-1.55-5.96-1.87-.17-.2,2.03-3.38,1.81-3.53-1.15-.82-6.02,1.75-5.46-1.81l5.42-1.81c-7.4-2.45-15.14,3.23-20.97,3.5-6.09.29-15.36-3.58-22.52-1.69.46,4.72,12.39.67,12.62,4.49.21,3.43-4.94,8.46-8.12,9.96,4.28-7.21,2.03-7.52-3.62-1.81-.45-2.23,5.86-7.47.05-5.38-2.18.78-14.99,12.04-17.25,14.48-.83-8.72-10.74,3.96-1.81,1.81-.65.79-5.14,6.5-5.36,6.9-3.23,5.9-3.57,8.77-1.89,14.85.37,1.32-.89,3.64.91,3.64s.46-2.42.91-3.64c.31-.85,1.25-2.32,1.81-3.62.77-.84,3.42-1.39,3.62-1.81-5.06,8.42-10.87,20.82-12.19,30.42-2.03,14.8-3.85,36.44-1.85,51.59.98,7.35,2.94,13.38,10.41,15.88.26,2.25,1.48,2.75,1.81,3.62,3.55,9.26,3.04,4.86,7.25,5.44.56.85.83,1.33,1.81,1.81.07,1.19-.14,2.45,0,3.62-1.02-.31-2-.98-2.73-1.77-1.83,1.06.93,2.41.92,3.59,0,.53-2.78,1.36-.19,4.57,3.47,4.29,4.91.88,5.63.86,1.25-.01,2.56,2.75,3.59.92-.75-1.56-2.67-1.94-3.59-2.73.19-.37-.08-1.16,0-1.81.18-1.41,1.97.52,0-1.81-.58-.69-.65-1.24-1.81-1.81-.1-1.2.09-2.43,0-3.62.54.1,1.25.02,1.81,0,.6.38,1.16,1.26,1.81,1.81.63.53,1.25,1.21,1.81,1.81.57.61,1.36,1.18,1.81,1.81-.17.37.04,1.17,0,1.81-.01.18-2.84,1.53,0,1.81l1.81,1.81c.09.58-.03,1.22,0,1.81-2.31.33-2.27,1.18,0,1.81l8.12,5.47c3.12.36-3.28-4.71-4.5-5.47,1.1.23,2.56-.25,3.63,0,1.27,1.74,2.56,1.26,3.62,1.81.35.18,1.44,3.64,3.62,1.81-1.29.65-4.06,1.85-3.62,3.61,3.73.33,16.79.66,16.27,6.37-.39,4.28-9.07-.03-10.83.92l9.04,3.63-7.22,3.62,5.42,3.59c-4.9-1.84-5.27,3.99-7.93,3.71-1.23-.13-13.85-2.86-15.09-3.3-3.87-1.4-8.65-6.22-11.31-6.9-2.47-.62-4.19,2.19-3.73,2.85.73,1.04,20.24,9.57,23.19,10.38,6.24,1.71,16.83,3.76,23.04,3.78,2.9.01,25.38-2.31,26.29-3.27.19-.2.17-5.14-.02-5.44-.28-.43-5.6,5.02-4.87-4.27.46-5.99,4.11-4.04,6.47-5.85,7.7-5.88-8.41-4.81-7.01-11.62l8.11,3.65-4.49-5.46c2.71-.45,4.74,1.36,7.25,1.8.31.05.81,1.81,1.81,0l3.64-.91-3.64-.91c-.13-.89-2.57-3.1-1.81-3.61,1.4-.94,11.46,5.17,14.49-.93-8.36-2.12,1.29-4.03,3.8-7.17,1.21-1.51.36-7.11,3.01-11.41,4.62-7.48,15.98-14.36,17.64-23.12.56-2.94-2.43-7.86.92-11.75-10.03,4.49-2.78-2.45-3.43-9.99-.49-5.6-5.71-18.56-7.01-25.82-2.06-11.54,1.87-13.73-5.86-25.84-.18-1.15.19-2.48,0-3.63,3.42-1.54.31-3.04,0-3.62-.4-.75-1.13-1.32-1.81-1.81-.38-.27-1.15-2.91-1.81,0-.4-.29-1.41.28-1.81,0-.26-.41.35-1.99-1.81-1.81-1.17-1.81-1.12-4.24-1.81-5.44,1.26.94,4.08,3.82,5.4,2.74l-5.4-4.55-1.81-1.81c-.59-.62-1.2-1.21-1.81-1.81-.61-.6-1.21-1.21-1.81-1.81-.6-.6-1.2-1.22-1.81-1.81-.61-.6-1.21-1.21-1.81-1.81-.6-.61-1.21-1.2-1.81-1.81-.6-.61-1.19-1.22-1.81-1.81l-1.81-1.81-2.74-3.59c-1.37.76.25,2.37.92,3.59M384.56,399.8v2.51c1.18-.6,1.18-1.21,0-1.81M545.58,616.22l-40.18-67.67c-15.44-29.89-29.52-60.68-45.87-90.08-2.62-4.7-5.81-11.15-9.99-14.46,14.41,31.76,29.98,63.12,46.8,93.67,14.67,26.63,30.22,54.97,49.24,78.54M155.87,623.47c7.22-6.34,12.86-16.22,18.15-24.43,31.28-48.56,57.15-100.92,81.52-153.22-5.36,5.8-9.83,14.67-13.62,21.71-15.28,28.48-27.88,58.43-44.06,86.46l-41.99,69.47ZM172.22,500.38v1.63c1.18-.61,1.18-1.21,0-1.81M168.49,519.01v1.13c1.18-.6,1.18-1.21,0-1.81M146.96,556.24c-.66-.7,4.79-15.86,5.65-18.48,1.31-3.98,7.97-9.39,1.45-12.17-8.05,24.32-20.1,49.84-23.37,75.44-1.2,9.41-2.56,43.1,3.87,49.15,2.18,2.06,14.87,3.87,8.12.07-4.06-2.28-6.98-2.44-8.29-8.14-1.42-6.17,2.07-3.32,3.32-4.17,1.94-1.33-2.53-1.64-3.16-2.68-3.71-6.15-.7-24.55,3.16-30.92l-3.61-1.71,7.23-4.57c.72-3.66-5.93-.44-5.42-2.68.4-1.74,3.16-5.19,5.42-4.57.74-3.12-2.64-1.14-3.3-1.96-.47-.59,1.39-13.48,1.76-14.94.38-1.46,2.45-1.17,2.81-2.18.87-2.41,1.12-8.83,2.45-10.58,1.99-2.64,4.84-2.52,5.34-2.97,2-1.78-3.26-1.75-3.44-1.94M561.91,652.45c6.62.22,11.35-3.07,13.3-9.34,5.31-17.14-.85-50.59-5.57-68.16l-18.58-49.36c-1.25,3.03-.78,3.7-.17,6.38,1.52,6.67,5.61,17.97,9.2,23.52-7.92,2.32-.29,2.57,1.98,5.84,1.07,1.54.71,6.09,1.49,8.65.8,2.63,3.27,4.2,3.78,5.45.75,1.82-4.53-.48-3.61,2.68,5.54-2.73,5.76,15.69,5.39,17.03-.5,1.82-4.25.48-3.58,2.02l7.24,5.45c-7.02,1.88-1.43,1.95-.77,5.43,1.14,6.07-.31,10.28-.32,14.45,0,2.91,2.83,6.31,2.72,7.38-.22,2.05-7.06,1.36-5.29,7.19.18.6,7,1.28.93,9.95-1.81,2.58-7.37,1.37-8.14,5.43M467.64,561.84c-.76.64-3.11-1.84-3.24-3.09l-3.97-29.54,1.78,27.18c-2.83-.61-3.61-11.59-9.03-8.17l24.46,38.98c4.08-10.79-11.78-17.05-8.18-28.99-3.3-.72-1.14,3.05-1.81,3.62M253.74,547.35c-3.91-3.9-6.87,11.03-11.27,9.05l-1.43,5.42-3.59-10.86c1.27,9.12-1.88,17.59-5.68,25.69-2.86,6.11-6.28,7.23-8.53,9.16-.81.7-6.43,13.32-7.55,15.9,5.9-3.09,40.4-52.01,38.05-54.37"></path>
    </g>
  </g>
</svg></svg></g></g></svg>