<?xml version="1.0" encoding="UTF-8"?>
<svg id="Layer_2" data-name="Layer 2" xmlns="http://www.w3.org/2000/svg" viewBox="0 0 1198 300.4">
  <defs>
    <style>
      .cls-1 {
        fill: #cc0f2d;
      }

      .cls-2 {
        fill: #1f1f1f;
      }
    </style>
  </defs>
  <g id="STARS">
    <g>
      <path class="cls-2" d="M623.48,33.88h-37.47c-.94,0-4.76-3.44-5.37-4.61-2.48-4.75-1.42-14.76,4.58-16.1l53.68-.15c3.44.53,5.97,3.06,6.49,6.48l.08,268.02c-1.52,12.85-22,9.55-22,.97V33.88Z"/>
      <g>
        <path class="cls-2" d="M816.32,299.94c-6.92.56-19.12.65-25.98,0-97.62-9.25-122.04-122.09-99.63-201.51,32.96-116.81,190.85-119.65,226.79-4.54,25.48,81.61-.2,197.89-101.18,206.04ZM792.13,31.18c-115.31,11.06-117.47,229.63-6.01,246.56,58.93,8.95,100.92-22.8,113.64-79.43,17.57-78.24-10.22-176.47-107.63-167.13Z"/>
        <path class="cls-2" d="M1198,133.53v43.85c-2.8,11.65-3.99,23.51-7.28,35.09-11.5,40.48-38.72,72.38-80.43,83.21-7.01,1.82-14.23,2.38-21.2,4.27-8.4-.56-17.7.76-25.98,0-59.51-5.47-95.6-51.41-104.62-107.41-11.71-72.63,9.09-163.01,91.6-180.11,83.43-17.29,141.32,41.59,147.91,121.11ZM1064.91,31.19c-113.84,10.04-117.97,221.97-12.82,245.37,64.75,14.41,110.59-24.14,121.46-86.21,13.52-77.26-14.59-167.46-108.63-159.16Z"/>
      </g>
      <g>
        <path class="cls-1" d="M414.65,170.4v-42.85h52.46c16.96,0,34.82-20.15,36.46-36.38,2.19-21.68-14-48.32-37.46-48.32h-104.41v212.25h131.39c1.13,0,10.17-3.31,11.87-4.11,21.08-9.86,29.51-36.09,19.32-56.89-1.48-3.03-9.77-12.11-8.67-13.69.1-.14,2.32-.54,3.27-1.2,10.51-7.29,21.41-14.38,29.18-24.76,1.5-.33,9.63,10.99,10.89,13.03,34.14,54.95-2.63,126.71-66.88,131.44-12.99.96-26.09-.93-38.91-1.03-45.14-.35-90.31.36-135.43.05V0h154.37c2.55,0,12.16,2.78,15.25,3.73,63.37,19.44,81.6,103.05,29.69,145.72-9.05,7.44-34.52,20.95-45.93,20.95h-56.45Z"/>
        <polygon class="cls-1" points="284.76 0 284.76 297.95 242.8 297.95 242.8 77.73 142.38 224.19 41.97 78.72 41.97 297.95 0 297.95 0 0 40.47 0 140.06 148.8 143.36 151.46 245.3 0 284.76 0"/>
      </g>
    </g>
  </g>
</svg>