<?xml version="1.0" encoding="UTF-8"?>
<svg id="Layer_2" data-name="Layer 2" xmlns="http://www.w3.org/2000/svg" viewBox="0 0 262.32 286.78">
  <defs>
    <style>
      .cls-1 {
        fill: #a6192e;
      }
    </style>
  </defs>
  <g id="STARS">
    <g>
      <path class="cls-1" d="M119.86,286.78c-8.06-3.97-16.44-6.78-22.96-13.41-4.78-4.86-12.9-19.32-12.9-25.96v-21.43c-5.75,2.54-10.4,6.67-16.26,9.15-22.15,9.37-44.49,4.17-58.29-15.8-21.33-30.86-4.17-62.6,27.72-75.08l-11.87-6.54C-29.2,105.67,14.07,25,73.06,56.06c3.72,1.96,7.09,4.96,10.94,6.5v-20.43c0-2.8,4.02-14.37,5.5-17.42,5.85-12.06,17.32-20.3,30.36-22.93-1.6,2.84-1.5,15.74-2.15,16.78-.22.36-5.57,2.74-7.28,4.17-23.3,19.39-5.12,62.39,4.37,85.02-1.37,1.82-5.87,4.46-7.88,3.19-1.05-.67-12.25-16.89-14.98-19.95-18.87-21.18-55.35-45.37-72.88-8.18-16.6,35.21,23.11,49.32,49.81,54.18,3.56.65,21.25,2.11,22.16,2.74,1.72,1.19.72,6.38.92,8.52-22.63,2.1-68,7.61-75.25,33.85-4.05,14.66,3.74,32.65,17.57,39.31,28.45,13.69,59.84-23.64,72.74-45.13.85-.5,7.54,2.61,7.79,2.95.87,1.19-7.76,19.93-8.92,23.33-9.07,26.61-13.97,70.22,26.42,69.34,40.86-.89,32.85-45.94,23.42-72.34-1.11-3.09-8.72-19.23-7.92-20.33.25-.34,6.93-3.45,7.79-2.96,12.62,21.29,44.73,59.06,72.74,45.13,6.86-3.41,13.99-12.16,16.52-19.35,12.37-35.13-27.81-47-54.07-51.51-3.17-.54-19.39-1.59-20.12-2.29-.32-.31-.33-8.65-.01-8.96.54-.54,12.6-.74,15.3-1.13,18.42-2.67,49.21-9.22,58.13-27.56,1.28-2.63,2.28-8.57,3.27-9.69,1.09-1.24,12.36-6.62,14.96-7.46v13.95c-2.94,3.16-3.63,7.51-5.95,11.48-6.56,11.21-19.23,19.35-30.9,24.4-.62.83,13.18,7.41,14.86,8.54,5.74,3.88,12.74,10.71,16.19,16.69,2.43,4.21,3.34,8.66,5.81,12.63v18.93c-4.57,12.71-10.93,25.16-22.59,32.71-21.56,13.95-41.83,4.83-61.09-7.79v20.43c0,2.79-3.43,13.17-4.79,16.14-6.21,13.55-17.96,21.47-32.07,25.22h-21.92Z"/>
      <path class="cls-1" d="M151.74,106.41l-13.83-69.38c-4.25-44.58,53.49-50.59,61.58-8.78,10.5-.32,17.23-2.27,26.98,2.9,18.03,9.57,21.55,33.88,7.95,48.85-8.27,9.1-29.6,12.8-41.63,16.16-13.55,3.79-27.24,7.53-41.06,10.25Z"/>
    </g>
  </g>
</svg>