<?xml version="1.0" encoding="UTF-8"?>
<svg id="Layer_2" data-name="Layer 2" xmlns="http://www.w3.org/2000/svg" viewBox="0 0 83.4 91.1">
  <defs>
    <style>
      .cls-1 {
        fill: #a6192e;
      }
    </style>
  </defs>
  <g id="STARS">
    <path class="cls-1" d="M56.6,71.2c.1,1.7.2,3.2.2,4.5,0,8.9-6.3,15.4-15.1,15.4s-15.2-6.5-15.2-16.3c0-.7,0-1.3.1-2l.1-1.6c-5,3.4-8.2,4.7-12.1,4.7-7.8,0-14.6-7.3-14.6-15.7,0-5.8,4.2-11.2,10.5-14l1.4-.6C3.7,41.8,0,37.3,0,30.8c0-8.4,6.9-15.8,14.8-15.8,3.9.2,7.6,1.6,10.8,3.8l1.2.9c-.1-1.7-.2-3.1-.2-4.3,0-8.9,6.3-15.4,15.1-15.4s15.1,6.3,15.1,16.2v2l-.2,1.5c5-3.4,8-4.7,12.2-4.7,7.8,0,14.6,7.4,14.6,15.8,0,5.8-4.2,11.3-10.5,14.1l-1.5.7c8.2,3.7,11.9,8.3,11.9,14.6,0,8.4-6.9,15.7-14.6,15.7-3.9-.1-7.7-1.4-10.9-3.7l-1.2-1h0ZM49.1,55.7c7,10.2,13.6,15.3,19.6,15.3,5.1,0,9.8-5.2,9.8-10.9,0-7.3-8.8-12.2-24.3-13.4v-2.6c15.6-1.2,24.3-5.9,24.3-13.4,0-5.7-4.6-10.9-9.8-10.9-6,0-12.6,5.2-19.6,15.5l-2.4-1.4c3.5-7.1,5.2-13,5.2-17.9,0-7.1-3.8-11.3-10.3-11.3s-10.3,4.2-10.3,11c0,5.1,1.7,10.9,5.2,18.1l-2.4,1.4c-6.9-10.3-13.5-15.5-19.6-15.5-5.1,0-9.8,5.2-9.8,10.9,0,7.4,8.6,12.2,24.3,13.4v2.6c-15.4,1.4-24.2,6.3-24.2,13.6,0,5.7,4.7,10.9,9.8,10.9,6.1,0,12.7-5.2,19.6-15.4l2.4,1.2c-3.4,7.2-5.2,13.2-5.2,18.3,0,6.9,4,11,10.3,11s10.3-4.1,10.3-11.1c0-5-1.7-10.9-5.2-18.1l2.3-1.3Z"/>
  </g>
</svg>