<?xml version="1.0" encoding="UTF-8"?>
<svg id="Layer_2" data-name="Layer 2" xmlns="http://www.w3.org/2000/svg" viewBox="0 0 96.99 90.73">
  <defs>
    <style>
      .cls-1 {
        fill: #009739;
      }
    </style>
  </defs>
  <g id="STARS">
    <path class="cls-1" d="M46.33,58.83l2.8.2c.2,13.3,3.1,21.7,8.4,25.2,2.2,1.5,4.8,1.8,7.9,1,3.1-.7,5.5-2.4,7.2-5,4.4-6.7-.1-15.5-13.8-26.2l1.6-2.3c15.2,8.2,25,8.9,29.5,2.2,1.6-2.4,2.2-5.2,1.8-8.4-.5-3.2-1.8-5.6-4.1-7.1-5.4-3.5-14.3-2.8-26.5,2.3l-1.3-2.6c7.3-4.4,12.3-8.8,15.2-13.2,1.9-3,2.8-5.9,2.3-8.8-.4-2.8-1.9-5.2-4.9-7.2-6.2-4-11.3-2.7-15.7,4-2.9,4.4-4.9,10.7-6.1,19.3l-2.8-.4c-.2-13.2-3.1-21.6-8.4-25.1-2.2-1.5-4.8-1.8-7.9-1-3.1.7-5.5,2.4-7.2,5-4.4,6.7.2,15.5,13.8,26.2l-1.6,2.3c-15.2-8.2-25-8.9-29.5-2.2-1.6,2.4-2.2,5.2-1.7,8.4.4,3.2,1.7,5.5,4,7.1,5.4,3.5,14.3,2.7,26.5-2.3l1.3,2.4c-14.6,10-27.3,6.3-30.6,4.2-2.6-1.6-4.4-4-5.5-7.2-1.1-3-1.3-6.2-.7-9.3.4-2.2,1.2-4.3,2.4-6.1,3.7-5.5,9.5-7.6,17.7-6.3l1.6.1c-.1,0-.1-.1-.2-.1h.2c-4.9-7.9-5.5-14.5-1.9-20,2.4-3.7,5.7-6.1,10.2-7.3,4.4-1.2,8.4-.7,11.9,1.7,3.7,2.3,6.1,5.6,7.3,9.6l.5,1.7,2.7-4c2.7-4.2,6.1-6.6,10.4-7.6,4.1-.8,8.2-.1,12.1,2.4,4.3,2.8,6.6,6.3,7.2,10.5.6,4.3-.6,8.5-3.4,12.9l-.9,1.2-.4.6-1,1.5c5.9-.4,10.5.6,13.7,2.7,2.6,1.7,4.4,4.2,5.5,7.2,1.2,3.2,1.3,6.2.7,9.3-.4,2.2-1.2,4.3-2.4,6.2-3.5,5.5-9.5,7.6-17.6,6.3l-1.6-.2c0,.1,0,.2.1.2h-.2c4.9,7.8,5.6,14.5,1.9,20-2.3,3.7-5.7,6.1-10.2,7.3-4.4,1.2-8.3.6-11.9-1.7-3.5-2.1-11-12.4-8.4-29.6h0ZM47.43,44.33c1,0,1.8.5,2.3,1.2l.1.1c-8.1,15.7-12.6,22-31.7,39.2-1.7-.7-2.9-2.2-3.4-3.9,16.6-12.9,24.1-21,32.7-36.6h0Z"/>
  </g>
</svg>